<?xml version="1.0" encoding="utf-8"?>
<!-- Generator: Adobe Illustrator 27.7.0, SVG Export Plug-In . SVG Version: 6.00 Build 0)  -->
<svg version="1.1" id="Layer_1" xmlns="http://www.w3.org/2000/svg" xmlns:xlink="http://www.w3.org/1999/xlink" x="0px" y="0px"
	 viewBox="0 0 329.1 126.1" style="enable-background:new 0 0 329.1 126.1;" xml:space="preserve">
<style type="text/css">
	.st0{fill:#FFFFFF;}
</style>
<rect width="329.1" height="126.1"/>
<path class="st0" d="M292.5,25.3v21.2c-0.9-0.5-1.9-1-2.9-1.4c-2.4-0.9-5-1.4-7.7-1.4c-2.7,0-5.2,0.5-7.7,1.4
	c-2.4,0.9-4.5,2.2-6.3,3.9c-1.8,1.7-3.2,3.8-4.3,6.3c-0.2,0.5-0.4,1-0.6,1.6c-0.2-0.5-0.4-1-0.6-1.6c-1.1-2.5-2.5-4.5-4.3-6.3
	c-1.8-1.7-3.9-3-6.3-3.9c-2.4-0.9-5-1.4-7.7-1.4c-2.7,0-5.2,0.5-7.7,1.4c-2.4,0.9-4.5,2.2-6.3,3.9s-3.2,3.8-4.3,6.3
	c-0.3,0.6-0.5,1.3-0.7,1.9c-0.2-0.7-0.4-1.3-0.7-1.9c-1.1-2.5-2.5-4.5-4.3-6.3c-1.8-1.7-3.9-3-6.3-3.9c-2.4-0.9-5-1.4-7.7-1.4
	c-2.7,0-5.2,0.5-7.7,1.4c-2.4,0.9-4.5,2.2-6.3,3.9s-3.2,3.8-4.3,6.3c-0.2,0.5-0.4,1-0.6,1.5v-13H177v2.6c-0.9-0.5-1.7-0.9-2.7-1.3
	c-2.4-0.9-5-1.4-7.7-1.4c-2.7,0-5.2,0.5-7.7,1.4c-2.3,0.8-4.2,2-5.9,3.6l1.8-5h-12.5l-7.1,24.7h-0.2l-8-24.7h-12.6
	c-0.2,0-0.4,0-0.5,0c-1.3,0-3.5,0.3-5.2,0.7c-1.7,0.5-3.1,1.1-3.1,1.1l0-1.8H95.2v13.7c-0.2-0.7-0.4-1.3-0.6-2
	c-0.9-2.5-2.1-4.7-3.7-6.4c-1.6-1.8-3.5-3.1-5.7-4c-2.2-0.9-4.6-1.4-7.3-1.4c-2.7,0-5.3,0.5-7.6,1.4s-4.4,2.3-6.1,4
	c-0.5,0.5-0.9,1-1.3,1.5l2.4-6.8H52.7l-7.5,25.9h-0.2l-7.6-25.9h-13l14.1,39.9h12.7l7.4-21c0,0.4,0,0.8,0,1.2c0,3.2,0.5,6,1.5,8.5
	s2.5,4.6,4.2,6.2c1.8,1.7,3.9,3,6.3,3.9s4.9,1.3,7.6,1.3c3.7,0,6.8-0.7,9.6-2.1s5-3.4,6.7-5.9l-8.2-5.4c-0.8,1.2-1.9,2.1-3.2,2.8
	c-1.3,0.7-2.9,1.1-4.8,1.1c-1.1,0-2.1-0.2-3.1-0.5c-1-0.3-1.9-0.8-2.7-1.5c-0.8-0.6-1.4-1.4-1.9-2.2s-0.8-1.8-0.9-2.9h25.3v16.6
	h10.3V63.2c0-0.8,0.1-1.6,0.4-2.6s0.8-1.9,1.4-2.8c0.7-0.8,1.5-1.6,2.6-2.2c1.1-0.6,2.2-0.8,3.8-0.8c0.5,0,4.3,0,4.3,0l0.6,1.3l0,0
	l10.1,25.5l-1.1,3.2c-0.6,1.6-1.3,2.9-2.1,3.8s-2.1,1.3-4,1.3c-0.6,0-1.2-0.1-1.9-0.2c-0.7-0.1-1.3-0.3-1.9-0.5l-1.3,10.6
	c0.9,0.3,1.9,0.5,3.1,0.6c1.2,0.2,2.3,0.2,3.4,0.2c2.3,0,4.2-0.3,5.9-0.8s3.1-1.4,4.3-2.5s2.3-2.4,3.2-4s1.7-3.3,2.4-5.4l8.1-22.3
	c0.2,2.2,0.7,4.3,1.5,6.2c1.1,2.5,2.5,4.6,4.3,6.3s3.9,3.1,6.3,4c2.4,0.9,5,1.4,7.7,1.4c2.7,0,5.3-0.5,7.7-1.4
	c0.4-0.2,0.8-0.3,1.1-0.5c0,0.9-0.1,1.9-0.4,3c-0.4,1.3-1.1,2.5-1.6,3c-1.7,1.9-4.2,2.9-7.7,2.9c-2,0-4.1-0.4-6.2-1.2s-4-2-5.7-3.6
	l-5.9,8.8c2.4,1.9,5.3,3.4,8.7,4.4s6.6,1.5,9.8,1.5s6.1-0.4,8.7-1.3c2.6-0.9,4.8-2.2,6.7-4c1.8-1.8,3.2-4.1,4.2-6.8
	c0.3-0.8,0.9-3.3,1.2-5.7c0.2-1.8,0-3.7,0.1-4.4v-8.1c0.2,0.5,0.3,1,0.6,1.5c1.1,2.5,2.5,4.6,4.3,6.3s3.9,3.1,6.3,4
	c2.4,0.9,5,1.4,7.7,1.4c2.7,0,5.3-0.5,7.7-1.4s4.5-2.3,6.3-4c1.8-1.7,3.3-3.8,4.3-6.3c0.3-0.6,0.5-1.3,0.7-1.9
	c0.2,0.7,0.4,1.3,0.7,1.9c1.1,2.5,2.5,4.6,4.3,6.3s3.9,3.1,6.3,4c2.4,0.9,5,1.4,7.7,1.4c2.7,0,5.3-0.5,7.7-1.4s4.5-2.3,6.3-4
	c1.8-1.7,3.3-3.8,4.3-6.3c0.2-0.5,0.4-1,0.6-1.6c0.2,0.5,0.4,1.1,0.6,1.6c1.1,2.5,2.5,4.6,4.3,6.3s3.9,3.1,6.3,4
	c2.4,0.9,5,1.4,7.7,1.4c2.7,0,5.3-0.5,7.7-1.4c1-0.4,2-0.9,2.9-1.4v2.9h10.2V25.3H292.5z M69.9,59.4c0.1-1,0.3-1.9,0.7-2.8
	c0.4-0.9,1-1.7,1.7-2.3s1.6-1.2,2.5-1.5s2-0.6,3.2-0.6c2.3,0,4.1,0.7,5.3,2.1c1.2,1.4,1.8,3.1,1.8,5.1H69.9z M174.6,67.2
	c-0.4,1.2-0.9,2.2-1.6,3.1s-1.6,1.7-2.7,2.2c-1.1,0.6-2.3,0.8-3.7,0.8s-2.6-0.3-3.7-0.8c-1.1-0.6-1.9-1.3-2.7-2.2s-1.3-2-1.6-3.1
	c-0.4-1.2-0.5-2.3-0.5-3.5c0-1.2,0.2-2.4,0.5-3.5c0.4-1.2,0.9-2.2,1.6-3c0.7-0.9,1.6-1.6,2.6-2.2c1.1-0.5,2.3-0.8,3.7-0.8
	s2.6,0.3,3.7,0.8c1.1,0.5,1.9,1.3,2.7,2.2s1.3,1.9,1.7,3c0.4,1.2,0.6,2.3,0.6,3.5C175.2,64.8,175,66,174.6,67.2z M214.1,67.1
	c-0.4,1.2-0.9,2.2-1.6,3.1s-1.6,1.7-2.7,2.2c-1.1,0.6-2.3,0.8-3.7,0.8s-2.6-0.3-3.7-0.8c-1.1-0.6-1.9-1.3-2.7-2.2s-1.3-2-1.6-3.1
	c-0.4-1.2-0.5-2.3-0.5-3.5c0-1.2,0.2-2.4,0.5-3.5c0.4-1.2,0.9-2.2,1.6-3c0.7-0.9,1.6-1.6,2.6-2.2c1.1-0.5,2.3-0.8,3.7-0.8
	s2.6,0.3,3.7,0.8c1.1,0.5,1.9,1.3,2.7,2.2s1.3,1.9,1.7,3c0.4,1.2,0.6,2.3,0.6,3.5C214.7,64.8,214.5,66,214.1,67.1z M252.2,67.1
	c-0.4,1.2-0.9,2.2-1.6,3.1s-1.6,1.7-2.7,2.2c-1.1,0.6-2.3,0.8-3.7,0.8s-2.6-0.3-3.7-0.8c-1.1-0.6-1.9-1.3-2.7-2.2s-1.3-2-1.6-3.1
	c-0.4-1.2-0.5-2.3-0.5-3.5c0-1.2,0.2-2.4,0.5-3.5c0.4-1.2,0.9-2.2,1.6-3c0.7-0.9,1.6-1.6,2.6-2.2c1.1-0.5,2.3-0.8,3.7-0.8
	s2.6,0.3,3.7,0.8c1.1,0.5,1.9,1.3,2.7,2.2s1.3,1.9,1.7,3c0.4,1.2,0.6,2.3,0.6,3.5C252.7,64.8,252.5,66,252.2,67.1z M289.9,67.1
	c-0.4,1.2-0.9,2.2-1.6,3.1s-1.6,1.7-2.7,2.2c-1.1,0.6-2.3,0.8-3.7,0.8s-2.6-0.3-3.7-0.8c-1.1-0.6-1.9-1.3-2.7-2.2s-1.3-2-1.6-3.1
	c-0.4-1.2-0.5-2.3-0.5-3.5c0-1.2,0.2-2.4,0.5-3.5c0.4-1.2,0.9-2.2,1.6-3c0.7-0.9,1.6-1.6,2.6-2.2c1.1-0.5,2.3-0.8,3.7-0.8
	s2.6,0.3,3.7,0.8c1.1,0.5,1.9,1.3,2.7,2.2s1.3,1.9,1.7,3c0.4,1.2,0.6,2.3,0.6,3.5C290.5,64.8,290.3,66,289.9,67.1z"/>
</svg>
